<svg width="1557" height="859" viewBox="0 0 1557 859" fill="none" xmlns="http://www.w3.org/2000/svg">
<g filter="url(#filter0_f_186_2015)">
<path d="M326.672 42.0918C337.856 44.8427 361.338 50.5276 365.798 51.2588C370.259 51.9899 381.314 51.0861 386.285 50.543L400.495 60.5801L409.477 79.6689C410.036 90.3672 412.386 112.164 417.32 113.766C422.254 115.367 431.278 116.605 435.173 117.023L466.993 139.195L487.061 142.375C498.133 152.521 521.192 176.774 524.849 192.612L556.41 191.51L579.247 194.593C604.786 206.267 655.615 238.382 654.623 273.453C661.973 280.736 666.103 284.694 667.249 285.763L687.542 279.51L713.442 259.203L735.951 252.873L756.077 257.714L771.452 269.373L791.684 340.734C795.032 341.357 803.167 342.551 808.925 342.35C814.684 342.149 822.733 351.477 826.039 356.166C826.715 359.653 828.621 366.608 830.836 366.531C833.604 366.435 844.26 369.943 847.583 369.827L860.871 369.363C867.359 375.235 880.892 387.069 883.123 387.435C885.912 387.892 905.084 397.2 917.207 395.114C924.932 387.749 929.079 385.83 930.186 385.791L947.215 381.315L964.515 384.593L972.12 395.969C970.665 401.933 966.678 414.785 962.373 418.483C958.067 422.182 951.556 426.253 948.839 427.826L946.535 441.212C952.774 445.244 967.825 453.994 978.122 456.739C988.83 458.583 996.636 457.756 999.201 457.112C1005.33 452.833 1017.94 444.484 1019.3 445.323C1021 446.374 1035.75 455.836 1039.62 455.7C1043.5 455.565 1056.67 451.779 1057.72 450.079C1058.56 448.719 1062.65 443.07 1064.59 440.415L1070.79 443.524L1069.33 465.196C1074.04 467.804 1084.4 474.427 1088.15 480.062C1092.83 487.105 1102.07 497.869 1102.8 502.833C1103.38 506.804 1100.81 514.544 1099.45 517.918L1103.71 528.856L1129.73 527.948L1138.76 516.546L1134.22 481.778L1142.83 474.271L1149.47 474.039C1151.51 484.686 1156.5 506.946 1160.18 510.809C1163.86 514.671 1169.74 519.898 1172.21 522.029C1175.54 521.913 1182.38 521.009 1183.17 518.32C1183.97 515.633 1194.86 524.935 1200.21 529.922L1207.53 517.47L1207.09 504.735L1216.1 492.778L1249.22 488.851L1278.25 510.565L1309.36 512.251L1327.45 538.229L1359.01 537.127L1379.74 527.533C1388.66 529.069 1407.06 532.122 1409.28 532.045L1435.86 531.117L1447.06 518.53L1470.31 517.718C1479.82 519.973 1499.06 524.918 1500.01 526.659C1501.19 528.835 1510.99 539.581 1510.73 547.905C1504.95 556.977 1501.11 558.22 1501.26 562.649C1501.42 567.079 1498.86 573.267 1498.48 578.27C1498.18 582.272 1493.59 591.56 1491.33 595.704L1490.47 634.54C1488.46 640.523 1484.5 657.367 1484.74 676.872C1504.68 689.037 1512.98 713.029 1514.64 723.504C1515.76 729.193 1517.51 742.141 1515.51 748.42C1513.01 756.268 1503.76 777.103 1503.36 781.552C1502.97 786 1496.39 803.968 1495.34 805.67C1494.5 807.03 1489.18 809.396 1486.63 810.409C1483.13 810.532 1475.88 810.341 1474.93 808.601C1473.98 806.86 1470.24 801.373 1468.49 798.847C1461.81 797.971 1447.92 797.348 1445.86 801.854C1443.8 806.361 1438.54 809.132 1436.17 809.954C1429.72 810.364 1416.36 810.978 1414.56 810.154C1412.75 809.33 1402.94 805.755 1398.27 804.07L1382.25 805.738C1377.03 809.801 1366.15 817.942 1364.38 818.004L1348.32 818.565C1346.62 817.516 1341.95 813.798 1336.85 807.324C1330.46 799.232 1316.16 786.428 1313.94 786.504C1311.73 786.581 1299.07 789.24 1296.91 790.979C1294.76 792.717 1275.94 809.451 1274.28 809.509C1272.95 809.555 1261.95 811.048 1256.62 811.789C1248.18 808.388 1229.92 799.749 1224.34 792.404C1215.28 786.955 1189.95 781.224 1178.42 779.04L1129.14 780.761C1123.67 782.984 1110.42 787.624 1101.13 788.392C1088.59 784.838 1081.23 779.292 1079.11 776.964L1078.63 763.122L1070.54 737.903L1042.76 736.102C1038.5 741.055 1028.65 751.008 1023.33 751.193C1018.01 751.379 1010.17 755.349 1006.91 757.311C996.996 753.776 976.771 745.059 975.21 738.461C960.149 738.987 951.443 735.225 948.973 733.278C943.878 724.956 930.702 708.527 918.757 709.388C903.827 710.463 883.244 708.41 881.769 697.929C880.294 687.447 881.562 660.238 875.909 657.109C870.256 653.981 861.679 646.519 857.784 646.101C853.887 645.682 833.441 647.505 828.915 644.892C825.293 642.8 806.808 636.239 798.017 633.22L789.325 622.437L771.51 620.286L743.967 641.206L719.702 644.825L693.311 635.214C681.797 633.583 656.582 631.174 647.831 634.584L648.624 657.285L641.026 661.986L620.037 648.306L605.75 636.054C600.423 636.979 589.327 638.844 587.555 638.906C585.34 638.984 574.189 637.156 570.313 637.291C566.436 637.426 537.87 629 535.52 625.201C533.17 621.402 525.624 611.687 525.675 597.272C517.73 592.006 513.796 590.48 507.21 592.373C500.623 594.266 494.114 598.374 484.702 598.703C475.289 599.032 454.474 590.334 447.463 580.046C436.569 572.887 412.036 560.402 401.131 555.055C395.183 559.328 381.719 567.485 375.456 565.93C367.627 563.986 360.1 554.824 355.04 552.783C349.979 550.742 334.088 540.21 324.598 538.324C317.006 536.815 309.36 520.008 306.486 511.793L275.821 506.766L260.838 474.581L242.237 465.806L227.84 466.309C220.779 459.903 204.894 447.374 197.838 448.508C190.781 449.641 180.853 438.383 176.771 432.612C171.474 429.102 158.647 421.604 149.711 419.698C138.54 417.316 133.479 415.276 123.512 415.624C115.539 415.903 107.756 419.5 104.861 421.265C100.157 418.842 88.1766 410.205 77.8902 395.042C52.7754 387.049 42.8652 376.308 41.0494 371.937C39.4997 364.599 38.495 346.414 46.8746 332.373C57.3488 314.822 62.2927 313.54 70.3658 306.606C78.4391 299.672 79.8037 275.232 68.9938 267.294C71.2015 251.14 69.2765 259.523 78.2252 245.905C85.3842 235.011 91.5343 219.57 93.7145 213.211L86.8121 190.169L92.4772 177.774C99.7373 174.01 114.994 165.346 117.94 160.809C121.623 155.136 145.211 132.139 147.407 131.507C149.602 130.876 166.973 120.29 168.556 118.018C170.14 115.744 179.469 97.1253 183.84 95.3096C187.338 93.8568 200.264 89.3767 206.29 87.3184L215.632 100.852L216.252 118.57C217.411 120.008 221.153 122.39 226.849 120.417C233.97 117.951 237.846 117.816 241.721 117.681C245.597 117.545 250.407 112.387 250.844 109.046C251.194 106.372 249.534 98.0041 248.661 94.1543C251.517 91.2827 257.784 85.5207 259.999 85.4434C262.214 85.3658 269.321 82.531 272.598 81.123L271.497 49.5625L280.065 40.9473L292.06 51.0615L307.197 40L326.672 42.0918Z" fill="url(#paint0_radial_186_2015)"/>
</g>
<defs>
<filter id="filter0_f_186_2015" x="0" y="0" width="1556.42" height="858.566" filterUnits="userSpaceOnUse" color-interpolation-filters="sRGB">
<feFlood flood-opacity="0" result="BackgroundImageFix"/>
<feBlend mode="normal" in="SourceGraphic" in2="BackgroundImageFix" result="shape"/>
<feGaussianBlur stdDeviation="20" result="effect1_foregroundBlur_186_2015"/>
</filter>
<radialGradient id="paint0_radial_186_2015" cx="0" cy="0" r="1" gradientUnits="userSpaceOnUse" gradientTransform="translate(778.212 429.283) rotate(90) scale(389.283 738.212)">
<stop offset="0.5" stop-color="#0EEFFF"/>
<stop offset="1" stop-color="#0C898D"/>
</radialGradient>
</defs>
</svg>
